<?xml version="1.0" encoding="UTF-8" standalone="no"?>
<!DOCTYPE svg PUBLIC "-//W3C//DTD SVG 1.1//EN" "http://www.w3.org/Graphics/SVG/1.1/DTD/svg11.dtd">
<svg version="1.1" xmlns="http://www.w3.org/2000/svg" xmlns:xlink="http://www.w3.org/1999/xlink" preserveAspectRatio="xMidYMid meet" viewBox="0 0 640 640" width="62" height="62"><defs><path d="M64 256C28.65 256 0 284.65 0 320C0 355.35 28.65 384 64 384C99.35 384 128 355.35 128 320C128 284.65 99.35 256 64 256Z" id="kMJOAfq8K"></path><path d="M320 256C284.65 256 256 284.65 256 320C256 355.35 284.65 384 320 384C355.35 384 384 355.35 384 320C384 284.65 355.35 256 320 256Z" id="jgqeB8pbK"></path><path d="M576 256C540.65 256 512 284.65 512 320C512 355.35 540.65 384 576 384C611.35 384 640 355.35 640 320C640 284.65 611.35 256 576 256Z" id="b1rFHylYqk"></path></defs><g><g><g><use xlink:href="#kMJOAfq8K" opacity="1" fill="#ff7a17" fill-opacity="1"></use><g><use xlink:href="#kMJOAfq8K" opacity="1" fill-opacity="0" stroke="#000000" stroke-width="1" stroke-opacity="0"></use></g></g><g><use xlink:href="#jgqeB8pbK" opacity="1" fill="#ff7a17" fill-opacity="1"></use><g><use xlink:href="#jgqeB8pbK" opacity="1" fill-opacity="0" stroke="#000000" stroke-width="1" stroke-opacity="0"></use></g></g><g><use xlink:href="#b1rFHylYqk" opacity="1" fill="#ff7a17" fill-opacity="1"></use><g><use xlink:href="#b1rFHylYqk" opacity="1" fill-opacity="0" stroke="#000000" stroke-width="1" stroke-opacity="0"></use></g></g></g></g></svg>