<?xml version="1.0" encoding="UTF-8" standalone="no"?>
<!DOCTYPE svg PUBLIC "-//W3C//DTD SVG 1.1//EN" "http://www.w3.org/Graphics/SVG/1.1/DTD/svg11.dtd">
<svg version="1.1" xmlns="http://www.w3.org/2000/svg" xmlns:xlink="http://www.w3.org/1999/xlink" preserveAspectRatio="xMidYMid meet" viewBox="0 0 640 640" width="24" height="24"><defs><path d="M185.32 0C159.57 0 138.77 20.89 138.77 46.64C138.77 101.32 138.77 538.74 138.77 593.42C138.77 619.09 159.57 640 185.32 640C212.25 640 427.69 640 454.62 640C480.33 640 501.21 619.11 501.21 593.42C501.21 538.74 501.21 101.32 501.21 46.64C501.19 20.89 480.33 0 454.62 0C400.76 0 212.25 0 185.32 0ZM173.69 518.54L173.69 78.67L466.29 78.67L466.29 518.54L173.69 518.54ZM257.56 47.33L257.56 33.71L382.42 33.71L382.4 47.33L382.4 47.33L257.56 47.33ZM423.89 53.02C417.31 53.02 411.96 47.67 411.96 41.1C411.96 34.54 417.31 29.19 423.89 29.19C430.48 29.17 435.83 34.52 435.83 41.1C435.83 47.69 430.46 53.02 423.89 53.02ZM263.11 590.31L263.11 555.33L376.81 555.33L376.81 590.31L263.11 590.31Z" id="bcpiyZT9P"></path></defs><g><g><g><use xlink:href="#bcpiyZT9P" opacity="1" fill="#ff7a17" fill-opacity="1"></use><g><use xlink:href="#bcpiyZT9P" opacity="1" fill-opacity="0" stroke="#000000" stroke-width="1" stroke-opacity="0"></use></g></g></g></g></svg>